<svg width="432" height="341" viewBox="0 0 432 341" fill="none" xmlns="http://www.w3.org/2000/svg">
<path d="M188.041 19.343H90.487V110.397H188.041V19.343Z" fill="#112B46"/>
<path d="M188.041 19.343H90.487V28.973H188.041V19.343Z" fill="#1D262D"/>
<path d="M166.954 24.267C166.954 25.242 166.164 26.032 165.189 26.032C164.214 26.032 163.424 25.242 163.424 24.267C163.424 23.292 164.214 22.502 165.189 22.502C166.164 22.502 166.954 23.292 166.954 24.267Z" fill="#606BF1"/>
<path d="M174.324 24.267C174.324 25.242 173.534 26.032 172.559 26.032C171.584 26.032 170.794 25.242 170.794 24.267C170.794 23.292 171.584 22.502 172.559 22.502C173.534 22.502 174.324 23.292 174.324 24.267Z" fill="#FBD15B"/>
<path d="M181.168 24.453C181.168 25.428 180.378 26.218 179.403 26.218C178.428 26.218 177.638 25.428 177.638 24.453C177.638 23.478 178.428 22.688 179.403 22.688C180.378 22.688 181.168 23.478 181.168 24.453Z" fill="#FF8578"/>
<path d="M121.65 37.925H107.833V39.086H121.65V37.925Z" fill="#FF8578"/>
<path d="M137.867 37.925H124.05V39.086H137.867V37.925Z" fill="#FBD15B"/>
<path d="M133.533 44.18H112.107V45.341H133.533V44.18Z" fill="#606BF1"/>
<path d="M147.966 44.18H137.075V45.341H147.966V44.18Z" fill="#FF8578"/>
<path d="M128.949 50.436H119.539V51.597H128.949V50.436Z" fill="#FBD15B"/>
<path d="M165.605 50.436H134.388V51.597H165.605V50.436Z" fill="#FBD15B"/>
<path d="M162.525 56.692H126.848V57.853H162.525V56.692Z" fill="#606BF1"/>
<path d="M128.908 62.948H117.928V64.109H128.908V62.948Z" fill="#FF8578"/>
<path d="M144.586 62.948H133.606V64.109H144.586V62.948Z" fill="#606BF1"/>
<path d="M123.806 95.403H107.833V96.564H123.806V95.403Z" fill="#FF8578"/>
<path d="M145.375 95.403H129.401V96.564H145.375V95.403Z" fill="#FBD15B"/>
<path d="M166.361 95.403H150.388V96.564H166.361V95.403Z" fill="#FF8578"/>
<path d="M143.324 89.148H112.107V90.309H143.324V89.148Z" fill="#606BF1"/>
<path d="M179.408 89.148H148.191V90.309H179.408V89.148Z" fill="#FF8578"/>
<path d="M150.517 82.892H119.539V84.053H150.517V82.892Z" fill="#FF8578"/>
<path d="M161.84 82.892H153.218V84.053H161.84V82.892Z" fill="#FBD15B"/>
<path d="M129.178 76.636H117.516V77.797H129.178V76.636Z" fill="#FBD15B"/>
<path d="M147.033 76.636H135.371V77.797H147.033V76.636Z" fill="#606BF1"/>
<path d="M166.195 76.636H154.533V77.797H166.195V76.636Z" fill="#FF8578"/>
<path d="M147.386 70.38H131.034V71.541H147.386V70.38Z" fill="#FBD15B"/>
<path d="M124.865 70.38H108.513V71.541H124.865V70.38Z" fill="#606BF1"/>
<path d="M100.276 36.81H98.79V38.297H100.276V36.81Z" fill="#F9FBFC"/>
<path d="M100.277 91.351H98.791V88.32H100.277V91.351ZM100.277 83.772H98.791V80.741H100.277V83.772ZM100.277 76.192H98.791V73.16H100.277V76.192ZM100.277 68.613H98.791V65.581H100.277V68.613ZM100.277 61.034H98.791V58.002H100.277V61.034ZM100.277 53.455H98.791V50.423H100.277V53.455ZM100.277 45.875H98.791V42.843H100.277V45.875Z" fill="#F9FBFC"/>
<path d="M100.276 95.899H98.79V97.386H100.276V95.899Z" fill="#F9FBFC"/>
<path d="M289.361 0H209.031V49.515H289.361V0Z" fill="#FF8578"/>
<path d="M240.23 19.915L230.673 23.994L240.23 28.013L238.979 30.901L227.517 25.78V22.237L238.979 17.086L240.23 19.915Z" fill="#F9FBFC"/>
<path d="M254.314 10.478L247.377 37.124L244.072 36.35L251.039 9.73401L254.314 10.478Z" fill="#F9FBFC"/>
<path d="M270.901 22.238V25.781L259.438 30.902L258.188 28.014L267.715 23.995L258.188 19.916L259.438 17.088L270.901 22.238Z" fill="#F9FBFC"/>
<path d="M332.356 95.925H286.602V128.521H332.356V95.925Z" fill="#606BF1"/>
<path d="M305.741 102.962C304.269 102.962 303.779 103.359 303.779 104.457V109.363C303.779 111.279 302.985 111.863 301.653 112.237C302.985 112.587 303.779 113.171 303.779 115.063V119.969C303.779 121.067 304.293 121.464 305.741 121.464V123.613C302.027 123.613 300.975 122.422 300.975 119.945V115.296C300.975 113.964 300.625 113.451 299.41 113.451V110.998C300.625 110.998 300.975 110.461 300.975 109.129V104.48C300.975 101.98 302.027 100.812 305.741 100.812V102.962Z" fill="#F1F2F2"/>
<path d="M317.983 104.481V109.13C317.983 110.462 318.333 110.999 319.572 110.999V113.452C318.334 113.452 317.983 113.966 317.983 115.297V119.946C317.983 122.422 316.932 123.614 313.217 123.614V121.465C314.665 121.465 315.179 121.068 315.179 119.97V115.064C315.179 113.172 315.973 112.588 317.305 112.238C315.973 111.864 315.179 111.28 315.179 109.364V104.458C315.179 103.36 314.689 102.963 313.217 102.963V100.814C316.932 100.813 317.983 101.981 317.983 104.481Z" fill="#F1F2F2"/>
<path d="M110.767 7.10101H59.438V41.433H110.767V7.10101Z" fill="#FBD15B"/>
<path d="M76.426 16.956C73.975 20.023 74.013 24.505 76.51 27.535C79.347 30.978 84.207 31.532 87.699 29.203L93.086 34.59C93.313 34.817 93.682 34.817 93.909 34.59L95.423 33.077C95.65 32.85 95.65 32.481 95.423 32.254L90.036 26.867C92.218 23.595 91.869 19.122 88.984 16.237C85.474 12.727 79.614 12.967 76.426 16.956ZM87.239 26.407C84.916 28.73 81.137 28.729 78.814 26.407C76.491 24.084 76.491 20.305 78.814 17.982C81.137 15.659 84.916 15.659 87.239 17.982C89.561 20.304 89.562 24.084 87.239 26.407Z" fill="#F9FBFC"/>
<path d="M260.081 113.147C259.969 114.281 258.419 126.12 246.245 126.12C233.463 126.12 235.604 113.466 235.604 113.466L235.588 113.386C236.834 113.13 238.176 113.034 239.598 113.194V107.202L254.105 99.086H254.632V113.066C254.632 113.066 256.933 112.795 260.081 113.147Z" fill="url(#paint0_radial_6_9)"/>
<path d="M253.035 72.342C255.092 74.428 256.647 77.128 257.395 80.427C258.789 86.573 257.477 93.076 255.694 98.999C255.389 100.012 255.043 101.034 254.417 101.887C253.97 102.495 253.396 102.997 252.826 103.492C250.245 105.739 247.666 107.987 245.091 110.241C243.346 111.769 232.602 113.042 230.551 111.576C222.649 105.926 221.129 89.558 222.711 81.19C225.335 67.307 243.178 62.343 253.035 72.342Z" fill="url(#paint1_radial_6_9)"/>
<path d="M248.597 90.108C248.702 88.772 250.076 87.308 251.455 88.175C252.883 89.073 252.547 91.446 251.955 92.752C251.491 93.776 249.939 94.897 248.888 93.945C248.007 93.147 249.376 92.205 249.421 91.477C249.461 90.821 248.149 90.351 248.686 89.649" fill="#F7B094"/>
<path d="M248.85 96.286C250.29 96.718 252.729 95.62 253.347 93.614C253.964 91.608 253.898 89.318 253.898 89.318C253.898 89.318 254.623 91.134 254.25 94.055C253.877 96.977 252.853 99.76 250.56 99.796C248.267 99.833 248.85 96.286 248.85 96.286Z" fill="#F7B094"/>
<path d="M247.083 94.207C247.036 94.23 246.983 94.247 246.922 94.256C246.03 94.381 245.675 93.302 245.542 92.626C245.233 91.049 245.282 89.453 245.226 87.858C245.213 87.458 245.245 86.96 245.081 86.584C244.58 85.437 243.245 84.691 242.838 83.507C242.364 82.129 243.702 80.754 243.171 79.245C242.358 76.934 239.391 76.403 237.245 76.428C234.024 76.466 230.885 77.063 227.707 77.556C224.352 78.077 220.064 78.571 217.108 76.449C213.545 73.892 212.057 67.227 214.716 63.578C216.165 61.589 218.914 60.53 221.322 60.475C223.875 60.417 226.032 61.938 228.373 62.704C230.238 63.314 232.042 61.53 233.785 61.181C235.976 60.743 236.907 63.135 238.845 63.201C240.728 63.265 242.576 61.794 244.407 61.459C248.057 60.793 247.842 64.459 250.292 65.711C251.814 66.489 253.781 66.018 255.321 66.809C256.491 67.41 256.655 68.466 256.91 69.662C257.13 70.696 257.143 71.89 257.483 72.873C257.789 73.757 258.532 74.315 259.111 75.007C259.743 75.761 260.146 76.642 260.467 77.588C261.177 79.685 261.335 81.948 261.141 84.144C260.815 87.831 259.629 91.459 258.398 94.931C257.599 97.184 257.302 99.53 256.073 101.662C255.743 102.235 254.277 103.908 253.732 102.662C253.615 102.395 253.633 102.091 253.654 101.8C253.816 99.478 255.978 84.513 250.31 86.311C249.12 86.688 248.322 87.678 247.878 88.808C247.348 90.159 247.31 91.52 247.378 92.948C247.388 93.152 247.393 93.357 247.385 93.561C247.375 93.826 247.309 94.094 247.083 94.207Z" fill="#3D3D7A"/>
<path d="M239.598 111.824C246.044 110.788 250.297 105.696 250.297 105.696C250.297 105.696 248.558 114.278 239.211 114.732L239.598 111.824Z" fill="#F7B094"/>
<path d="M250.179 228.795H259.406V317.32C259.406 318.218 258.678 318.946 257.78 318.946H251.805C250.907 318.946 250.179 318.218 250.179 317.32V228.795Z" fill="#0A2033"/>
<path d="M229.421 230.061H280.163V231.446C280.163 234.933 277.336 237.76 273.849 237.76H235.735C232.248 237.76 229.421 234.933 229.421 231.446V230.061Z" fill="#30475E"/>
<path d="M250.179 308.45H259.406V328.964C259.406 329.862 258.678 330.59 257.78 330.59H251.805C250.907 330.59 250.179 329.862 250.179 328.964V308.45Z" fill="#0A2033"/>
<path d="M206.912 325.19C206.912 328.172 209.33 330.59 212.312 330.59C215.294 330.59 217.712 328.172 217.712 325.19C217.712 322.208 215.294 319.79 212.312 319.79C209.33 319.79 206.912 322.208 206.912 325.19Z" fill="#0A2033"/>
<path d="M291.872 325.19C291.872 328.172 294.29 330.59 297.272 330.59C300.254 330.59 302.672 328.172 302.672 325.19C302.672 322.208 300.254 319.79 297.272 319.79C294.289 319.79 291.872 322.208 291.872 325.19Z" fill="#0A2033"/>
<path d="M245.511 317.795H264.073V301.575H245.511V317.795Z" fill="#30475E"/>
<path d="M206.912 321.612H302.672V319.73C302.672 316.554 300.097 313.979 296.921 313.979H212.664C209.488 313.979 206.913 316.554 206.913 319.73V321.612H206.912Z" fill="#FBD15B"/>
<path d="M254.792 239.579H251.591V300.127H254.792V239.579Z" fill="#30475E"/>
<path d="M291.041 164.628C288.827 164.559 287.027 166.391 287.155 168.602C287.789 179.592 285.459 206.402 275.223 215.55C262.707 226.734 227.234 225.211 227.234 225.211C227.234 225.211 221.376 232.401 233.092 233.998C244.809 235.596 277.828 234.531 285.817 227.075C293.55 219.858 298.14 200.949 294.681 168.037C294.482 166.149 292.938 164.687 291.041 164.628Z" fill="#FBD15B"/>
<path d="M224.579 300.128L228.797 309.746L215.872 315.418L211.638 305.768L224.579 300.128Z" fill="url(#paint2_radial_6_9)"/>
<path d="M285.532 193.224C284.733 194.822 227.303 193.256 221.879 193.751C221.879 193.751 186.729 210.527 181.68 226.233C181.169 227.815 181.025 229.908 181.185 232.4C182.591 254.512 207.771 307.461 207.771 307.461L211.637 305.767L224.579 300.127L226.416 299.328C226.416 299.328 206.445 239.813 210.439 236.618C214.433 233.423 259.697 225.434 275.402 221.184C291.124 216.919 285.532 193.224 285.532 193.224Z" fill="#56548C"/>
<path d="M175.303 302.602L176.312 317.052H162.204L161.195 302.57L175.303 302.602Z" fill="url(#paint3_radial_6_9)"/>
<path d="M221.592 193.256L221.081 193.48C221.081 193.48 162.237 201.74 152.651 218.245C146.42 228.982 158.481 307.434 158.481 307.434L179.299 307.482C179.299 307.482 176.185 242.131 177.224 238.488C178.39 234.334 180.387 232.832 181.186 232.401C181.026 229.909 181.17 227.815 181.681 226.234C186.73 210.528 221.88 193.752 221.88 193.752C221.767 193.672 221.671 193.496 221.592 193.256Z" fill="#3D3D7A"/>
<path d="M278.428 138.886L274.482 139.429C274.482 139.429 273.523 150.07 271.175 160.711L222.013 179.372L221.342 182.935C221.134 182.919 220.927 182.903 220.735 182.887C220.751 183.622 220.751 184.341 220.783 185.012C220.895 189.118 221.166 192.074 221.598 193.256C221.678 193.496 221.774 193.671 221.886 193.751C223.222 194.84 240.609 192.73 259.407 199.632C275.71 205.618 284.847 212.157 285.27 211.278C290.391 200.627 281.064 158.826 278.428 138.886Z" fill="#FF8578"/>
<path d="M273.299 163.267C271.989 169.562 268.602 182.088 261.955 183.766C253.279 185.971 236.503 185.859 220.782 185.012C220.75 184.341 220.75 183.622 220.734 182.887C220.926 182.903 221.133 182.919 221.341 182.935L222.012 179.372L271.174 160.711C273.523 150.07 274.481 139.429 274.481 139.429C274.481 139.429 274.481 139.493 274.497 139.605C274.593 141.251 275.264 153.968 273.299 163.267Z" fill="#F4675D"/>
<path d="M224.02 123.181C223.141 124.779 221.879 141.874 221.192 158.842L211.142 149.463C215.408 141.203 224.02 123.181 224.02 123.181Z" fill="#F4675D"/>
<path d="M217.997 171.24C209.513 172.71 201.716 173.972 201.716 173.972L201.7 174.387C192.257 166.846 177.894 145.484 177.894 145.484C177.894 145.484 182.192 140.323 183.262 138.965C183.422 138.757 206.844 154.878 208.043 154.734C208.347 154.702 209.545 152.593 211.143 149.462L221.193 158.841C221.033 162.883 220.905 166.909 220.825 170.728C219.882 170.904 218.939 171.064 217.997 171.24Z" fill="#F7B094"/>
<path d="M201.716 173.972L201.508 180.97H175.945C175.945 180.97 178.485 170.984 185.404 170.984C192.322 170.984 194.99 174.643 194.99 174.643L201.716 173.972Z" fill="url(#paint4_radial_6_9)"/>
<path d="M183.071 138.806L183.263 138.966C182.192 140.324 177.895 145.485 177.895 145.485L175.227 143.6C175.227 143.6 172.287 145.39 168.868 143.52C165.305 141.587 167.51 136.971 167.693 136.424C167.002 136.619 162.733 140.069 162.062 139.702C161.391 139.334 160.896 138.12 165.673 133.407C170.434 128.694 176.921 134.749 177.113 134.749L183.071 138.806Z" fill="#F7B094"/>
<path d="M169.423 142.718C169.423 142.718 168.393 144.647 170.224 145.485C172.055 146.323 175.618 146.928 177.148 146.781C178.678 146.634 179.895 144.492 179.895 144.492L175.26 140.143H171.555L169.423 142.718Z" fill="#F7B094"/>
<path d="M169.148 143.665C169.423 142.718 172.054 143.223 173.686 143.262C174.888 143.291 175.546 142.976 175.918 142.06C176.29 141.145 174.545 139.685 174.201 140.143C173.858 140.601 174.831 141.245 174.859 141.853C174.888 142.461 173.142 142.661 171.798 142.661C170.453 142.661 168.133 143.011 168.133 143.011L169.148 143.665Z" fill="#E8987C"/>
<path d="M268.676 169.786L243.64 160.919C241.819 164.322 239.869 166.879 237.936 167.39C235.012 168.157 227.95 169.483 220.824 170.729C219.881 170.905 218.939 171.064 217.996 171.24C209.512 172.71 201.715 173.972 201.715 173.972L201.699 174.387V174.659L201.507 180.97V182.571C201.507 182.571 210.007 182.136 220.728 182.887C235.731 183.957 255.079 184.597 261.486 181.577C264.49 180.155 266.886 175.49 268.772 169.738C268.74 169.754 268.708 169.77 268.676 169.786Z" fill="url(#paint5_radial_6_9)"/>
<path d="M243.64 160.919L268.676 169.786L267.543 173.131L242.763 162.502L243.64 160.919Z" fill="#F7B094"/>
<path d="M243.64 160.919C241.819 164.322 239.869 166.879 237.936 167.39C235.012 168.157 227.95 169.483 220.824 170.729C220.904 166.91 221.032 162.884 221.192 158.842C221.879 141.874 223.141 124.779 224.02 123.181C225.458 120.513 229.388 114.713 235.587 113.387L235.603 113.467C235.603 113.467 233.462 126.121 246.244 126.121C258.419 126.121 259.968 114.282 260.08 113.148C266.343 113.851 275.945 116.983 277.271 129.573C277.543 132.065 277.926 135.261 278.421 138.888L274.475 139.431C274.475 139.431 272.877 157.166 268.771 169.74C268.739 169.756 268.707 169.772 268.675 169.788L243.64 160.919Z" fill="#FF8578"/>
<path d="M243.381 158.611L253.378 134.411L246.013 159.589L243.381 158.611Z" fill="#6D4B35"/>
<path d="M260.081 113.147H254.633C254.633 113.147 246.88 121.66 241.896 121.66C236.912 121.66 239.599 113.195 239.599 113.195H237.168C230.183 113.195 224.305 118.44 223.515 125.381C223.424 126.176 223.342 126.93 223.271 127.612C222.738 132.762 243.601 136.51 243.601 136.51L254.343 135.909L260.866 123.181L262.166 117.969L260.081 113.147Z" fill="#FF8578"/>
<path d="M194.338 326.488C194.823 329.091 196.627 330.942 199.231 330.456L233.932 323.984C234.81 323.82 235.389 322.976 235.225 322.098L234.651 319.019C234.651 319.019 198.156 325.405 194.321 326.469L194.338 326.488Z" fill="#F1F2F2"/>
<path d="M204.662 317.751C205.024 317.437 205.372 317.125 205.734 316.811C206.43 316.188 207.115 315.582 207.774 314.994C208.122 314.683 208.47 314.371 208.793 314.079C209.427 313.511 210.024 312.979 210.559 312.502C210.944 312.155 211.303 311.826 211.626 311.534C212.219 311.002 212.704 310.568 213.043 310.264C213.337 310.001 213.773 309.988 214.076 310.242C215.503 311.441 220.113 314.184 228.464 309.016C228.86 308.771 229.385 308.899 229.6 309.312L234.65 319.017C234.65 319.017 198.155 325.403 194.32 326.467C195.581 325.683 200.24 321.652 204.662 317.751Z" fill="#3D3D7A"/>
<path d="M139.687 326.148C139.752 328.795 141.238 330.909 143.885 330.845L179.174 329.984C180.067 329.962 180.773 329.221 180.751 328.328L180.675 325.197C180.675 325.197 143.628 325.688 139.673 326.126L139.687 326.148Z" fill="#F1F2F2"/>
<path d="M151.271 319.167C151.679 318.914 152.072 318.663 152.479 318.41C153.265 317.906 154.038 317.416 154.782 316.942C155.175 316.69 155.568 316.438 155.934 316.201C156.65 315.741 157.324 315.311 157.928 314.926C158.363 314.644 158.77 314.378 159.136 314.141C159.806 313.711 160.354 313.359 160.737 313.113C161.069 312.9 161.502 312.957 161.76 313.256C162.977 314.667 167.092 318.109 176.16 314.338C176.59 314.159 177.088 314.369 177.235 314.812L180.674 325.198C180.674 325.198 143.627 325.689 139.672 326.127C141.042 325.551 146.284 322.313 151.271 319.167Z" fill="#3D3D7A"/>
<path d="M114.584 182.571L95.738 132.308H149.391L168.238 182.571H114.584Z" fill="#ABB5BA"/>
<path d="M171.554 182.571H168.238L149.391 132.308L152.404 132.442L169.835 177.938L171.554 182.571Z" fill="#8495A0"/>
<path d="M170.514 182.571H205.967L205.871 179.402C205.871 179.402 170.381 179.402 169.789 179.402" fill="#8495A0"/>
<path d="M321.557 192.157H313.021V332.391H321.557V192.157Z" fill="#8495A0"/>
<path d="M275.223 192.157H266.687V332.391H275.223V192.157Z" fill="#ABB5BA"/>
<path d="M126.784 192.157H118.248V332.391H126.784V192.157Z" fill="#8495A0"/>
<path d="M80.451 192.157H71.915V332.391H80.451V192.157Z" fill="#ABB5BA"/>
<path d="M330.099 192.69H63.738C61.447 192.69 59.589 190.832 59.589 188.541V186.72C59.589 184.428 61.447 182.571 63.738 182.571H330.098C332.39 182.571 334.247 184.429 334.247 186.72V188.541C334.248 190.833 332.39 192.69 330.099 192.69Z" fill="#141B56"/>
<path d="M104.696 137.591L105.614 140.038H116.302L115.384 137.591H104.696Z" fill="#8495A0"/>
<path d="M211.143 149.463L210.376 150.945L221.192 162.124V158.842L211.143 149.463Z" fill="#E8987C"/>
<path d="M431.916 330.588H0V340.45H431.916V330.588Z" fill="#A5B7C6"/>
<path d="M363.438 257.44C361.722 265.765 362.239 279.946 351.225 282.192C348.259 282.797 345.394 280.741 343.67 278.385C341.414 275.302 340.874 268.776 340.914 265.044C340.945 262.086 341.954 258.787 342.279 255.803C342.63 252.58 342.915 249.35 343.291 246.129C344.646 234.521 350.71 224.792 360.967 218.997C361.761 222.807 363.571 226.032 365.166 229.691C365.893 231.359 366.55 233.118 367.023 234.866C367.862 237.961 366.847 241.09 366.094 244.054C364.982 248.438 364.352 253.006 363.438 257.44Z" fill="url(#paint6_linear_6_9)"/>
<path d="M349.362 282.472C349.44 281.774 349.526 281.075 349.618 280.377C350.934 280.374 352.304 279.626 353.409 279.053C355.325 278.06 356.878 276.636 358.384 275.114C358.464 275.033 358.329 274.902 358.243 274.974C356.742 276.235 355.186 277.456 353.399 278.289C352.403 278.753 350.947 279.512 349.719 279.659C349.835 278.826 349.963 277.994 350.101 277.164C351.471 276.996 352.726 276.096 353.887 275.408C355.859 274.238 357.555 272.724 359.313 271.266C359.333 271.249 359.309 271.219 359.288 271.234C356.598 273.187 353.602 275.967 350.201 276.576C350.381 275.536 350.572 274.499 350.79 273.468C350.801 273.414 350.813 273.361 350.825 273.307C354.762 272.311 357.426 269.223 360.44 266.727C360.489 266.687 360.437 266.603 360.385 266.643C357.416 268.948 354.627 271.58 350.957 272.698C351.275 271.224 351.606 269.754 351.939 268.286C355.502 266.972 358.347 264.885 360.836 261.978C360.878 261.929 360.809 261.861 360.764 261.908C358.187 264.59 355.349 266.131 352.081 267.657C352.41 266.204 352.737 264.75 353.046 263.293C354.587 262.535 356.208 262.074 357.632 261.077C359.036 260.094 360.296 258.922 361.2 257.459C361.248 257.382 361.133 257.309 361.082 257.383C359.089 260.248 356.084 261.14 353.18 262.647C353.463 261.289 353.727 259.926 353.963 258.556C357.199 256.774 360.716 255.122 362.55 251.707C362.568 251.673 362.521 251.64 362.5 251.673C360.557 254.811 357.161 256.162 354.078 257.87C354.118 257.626 354.163 257.383 354.201 257.138C354.399 255.867 354.585 254.595 354.767 253.323C356.627 252.578 358.399 251.527 360.073 250.437C361.261 249.664 362.53 248.897 363.307 247.682C363.356 247.606 363.244 247.527 363.192 247.601C361.456 250.088 357.655 251.525 354.847 252.77C355.03 251.485 355.21 250.199 355.393 248.914C358.509 247.029 362.174 245.986 364.091 242.588C364.148 242.487 364 242.394 363.937 242.493C361.951 245.596 358.456 246.553 355.478 248.314C355.593 247.518 355.709 246.722 355.829 245.927C359.193 244.69 363.105 241.874 364.879 238.832C364.977 238.665 364.734 238.509 364.625 238.67C362.815 241.339 359.18 244.239 355.927 245.295C356.126 244.006 356.334 242.719 356.563 241.434C356.586 241.399 356.603 241.361 356.613 241.32C358.123 240.875 359.617 239.81 360.92 239.006C362.492 238.036 363.993 236.909 364.971 235.315C365.079 235.139 364.793 234.976 364.691 235.157C363.196 237.824 359.65 239.612 356.714 240.63C356.801 240.162 356.885 239.693 356.978 239.225C357.117 238.525 357.259 237.826 357.402 237.127C358.604 236.297 360.13 235.899 361.337 235.023C362.386 234.261 363.302 233.343 364.201 232.413C364.291 232.321 364.158 232.178 364.063 232.267C362.845 233.412 361.592 234.51 360.11 235.304C359.281 235.748 358.336 236.001 357.533 236.487C357.768 235.344 358.002 234.201 358.225 233.057C358.239 233.054 358.253 233.05 358.268 233.048C358.282 233.051 358.297 233.054 358.311 233.057C358.394 233.073 358.46 233.044 358.509 232.996C360.143 232.584 361.394 231.176 362.492 229.977C362.518 229.948 362.478 229.907 362.45 229.934C361.297 231 359.988 232.179 358.444 232.637C358.438 232.636 358.434 232.632 358.428 232.631C358.388 232.625 358.35 232.619 358.311 232.612C358.49 231.681 358.66 230.747 358.816 229.812C358.934 229.791 359.037 229.69 359.009 229.572C359.875 228.99 360.663 228.249 361.402 227.523C361.457 227.469 361.379 227.383 361.32 227.434C360.552 228.096 359.794 228.642 358.929 229.121C359.234 227.189 359.471 225.247 359.579 223.285C359.589 223.103 359.314 223.101 359.298 223.28C359.127 225.168 358.853 227.038 358.528 228.899C357.626 227.716 356.623 226.498 356.072 225.144C356.043 225.074 355.932 225.102 355.956 225.178C356.226 226.019 356.69 226.754 357.151 227.502C357.563 228.171 357.892 228.95 358.417 229.544C358.236 230.543 358.039 231.54 357.834 232.535C356.738 232.359 355.732 232.151 354.827 231.358C353.719 230.387 353.089 229.065 352.979 227.601C352.966 227.421 352.681 227.422 352.698 227.602C352.823 228.965 353.365 230.246 354.297 231.262C355.277 232.331 356.428 232.671 357.748 232.945C357.508 234.094 357.26 235.242 357.007 236.389C356.011 235.792 355.086 235.011 354.189 234.296C352.741 233.142 351.886 231.753 350.629 230.453C350.503 230.323 350.298 230.511 350.422 230.643C351.6 231.896 352.397 233.252 353.737 234.377C354.702 235.187 355.766 236.202 356.917 236.801C356.904 236.862 356.89 236.922 356.877 236.983C356.865 236.995 356.851 237.004 356.839 237.016C356.751 237.102 356.761 237.201 356.814 237.273C356.572 238.372 356.331 239.471 356.099 240.572C356.085 240.641 356.072 240.71 356.058 240.779C353.496 239.606 349.668 237.569 349.329 234.597C349.297 234.314 348.875 234.393 348.94 234.682C349.698 238.045 353.394 239.536 355.941 241.37C355.69 242.615 355.46 243.864 355.248 245.115C353.594 244.546 352.02 243.842 350.631 242.737C349.367 241.732 347.58 240.52 347.011 238.964C346.993 238.915 346.921 238.947 346.937 238.995C347.464 240.542 349.067 241.606 350.234 242.661C351.715 244.001 353.23 245.138 355.133 245.674C355.119 245.729 355.115 245.786 355.128 245.841C354.998 246.635 354.872 247.429 354.75 248.224C351.639 247.985 347.286 245.622 345.696 243.269C345.689 243.258 345.674 243.27 345.68 243.281C346.764 245.076 348.404 246.126 350.252 247.037C351.633 247.717 353.124 248.522 354.686 248.638C354.463 250.11 354.247 251.584 354.027 253.057C352.677 252.554 351.247 252.313 349.912 251.778C347.926 250.983 346.41 249.556 345.241 247.801C345.171 247.695 344.994 247.784 345.063 247.895C347.217 251.319 350.315 252.324 353.945 253.606C353.764 254.814 353.575 256.022 353.375 257.227C350.404 256.658 346.562 254.845 345.059 252.264C344.949 252.074 344.647 252.232 344.757 252.423C345.707 254.076 347.343 255.122 349.011 255.965C350.213 256.572 351.868 257.578 353.3 257.686C353.293 257.726 353.287 257.765 353.281 257.805C352.987 259.54 352.644 261.266 352.274 262.987C348.955 262.153 346.81 259.694 344.398 257.394C344.23 257.234 343.968 257.478 344.135 257.642C346.592 260.06 348.751 262.598 352.165 263.492C351.859 264.892 351.533 266.288 351.195 267.681C348.369 266.89 345.571 264.885 343.743 262.581C343.613 262.418 343.386 262.639 343.509 262.801C345.409 265.301 348.148 267.187 351.065 268.221C350.698 269.716 350.319 271.207 349.935 272.697C347.031 272.255 344.794 270.437 343.006 268.14C342.964 268.087 342.871 268.157 342.911 268.212C344.5 270.423 346.903 272.975 349.795 273.243C349.672 273.719 349.549 274.194 349.427 274.67C349.353 274.957 349.275 275.248 349.196 275.541C347.006 274.896 344.974 274.11 343.167 272.635C343.116 272.594 343.059 272.672 343.106 272.715C344.823 274.261 346.879 275.303 349.076 275.979C348.832 276.874 348.575 277.794 348.321 278.732C347.778 278.479 347.252 278.202 346.658 278.024C345.569 277.697 344.864 277.007 343.916 276.437C343.829 276.385 343.731 276.508 343.818 276.565C344.65 277.108 345.235 277.807 346.185 278.165C346.888 278.43 347.551 278.768 348.23 279.069C347.232 282.789 346.349 286.743 346.828 290.314C346.934 291.106 348.263 291.316 348.468 290.473C349.099 287.883 349.066 285.118 349.362 282.472Z" fill="#747DED"/>
<path d="M328.583 255.056C330.541 263.328 336.995 275.965 327.958 282.65C325.524 284.45 322.06 283.795 319.502 282.387C316.156 280.545 312.912 274.856 311.373 271.456C310.153 268.761 309.675 265.344 308.71 262.503C307.667 259.433 306.563 256.384 305.544 253.306C301.873 242.211 303.264 230.832 310.118 221.249C312.446 224.368 315.448 226.528 318.438 229.172C319.801 230.377 321.139 231.695 322.306 233.08C324.373 235.532 324.773 238.796 325.342 241.801C326.184 246.244 327.541 250.652 328.583 255.056Z" fill="url(#paint7_linear_6_9)"/>
<path d="M326.387 283.691C326.163 283.025 325.947 282.355 325.735 281.684C326.927 281.125 327.853 279.869 328.613 278.884C329.931 277.175 330.738 275.229 331.46 273.213C331.498 273.106 331.32 273.044 331.273 273.146C330.445 274.922 329.549 276.686 328.281 278.196C327.574 279.037 326.574 280.339 325.523 280.991C325.276 280.187 325.041 279.379 324.816 278.568C325.987 277.838 326.746 276.492 327.507 275.378C328.801 273.485 329.7 271.396 330.678 269.332C330.689 269.309 330.655 269.291 330.642 269.314C329.028 272.22 327.485 276.005 324.658 277.992C324.382 276.973 324.118 275.952 323.88 274.926C323.868 274.872 323.856 274.819 323.844 274.765C326.993 272.2 328.104 268.277 329.784 264.742C329.811 264.685 329.728 264.631 329.699 264.689C327.98 268.032 326.563 271.595 323.708 274.158C323.374 272.688 323.054 271.215 322.736 269.744C325.411 267.049 327.109 263.957 328.14 260.27C328.157 260.208 328.066 260.175 328.045 260.237C326.841 263.756 324.918 266.35 322.6 269.113C322.285 267.656 321.968 266.201 321.633 264.749C322.71 263.411 323.985 262.309 324.855 260.805C325.713 259.322 326.361 257.727 326.563 256.02C326.574 255.93 326.439 255.913 326.424 256.002C325.826 259.441 323.479 261.518 321.482 264.11C321.165 262.759 320.829 261.412 320.465 260.071C322.647 257.089 325.138 254.108 325.359 250.238C325.361 250.2 325.304 250.19 325.299 250.229C324.862 253.894 322.354 256.552 320.28 259.402C320.213 259.164 320.151 258.925 320.083 258.687C319.727 257.451 319.358 256.22 318.986 254.99C320.358 253.529 321.521 251.829 322.578 250.134C323.328 248.932 324.155 247.7 324.347 246.272C324.359 246.182 324.224 246.158 324.209 246.248C323.685 249.235 320.845 252.143 318.825 254.456C318.448 253.214 318.069 251.972 317.693 250.73C319.722 247.706 322.604 245.214 322.908 241.324C322.917 241.208 322.744 241.187 322.729 241.303C322.239 244.954 319.473 247.297 317.517 250.15C317.285 249.38 317.054 248.609 316.828 247.837C319.356 245.296 321.713 241.091 322.039 237.585C322.057 237.392 321.771 237.353 321.74 237.545C321.226 240.728 319.154 244.891 316.651 247.222C316.287 245.97 315.932 244.715 315.598 243.454C315.604 243.412 315.603 243.371 315.595 243.33C316.777 242.289 317.681 240.693 318.523 239.414C319.539 237.871 320.424 236.216 320.637 234.358C320.661 234.153 320.332 234.126 320.317 234.333C320.088 237.382 317.627 240.499 315.395 242.662C315.276 242.201 315.155 241.74 315.041 241.277C314.871 240.584 314.705 239.89 314.54 239.196C315.279 237.936 316.495 236.932 317.219 235.628C317.849 234.494 318.292 233.275 318.714 232.053C318.756 231.931 318.576 231.858 318.527 231.979C317.906 233.531 317.234 235.055 316.225 236.4C315.661 237.152 314.911 237.781 314.388 238.56C314.119 237.425 313.848 236.29 313.568 235.158C313.58 235.15 313.591 235.14 313.603 235.132C313.617 235.128 313.631 235.125 313.646 235.122C313.728 235.101 313.776 235.047 313.799 234.983C315.107 233.92 315.646 232.115 316.136 230.565C316.148 230.528 316.094 230.508 316.08 230.544C315.485 231.997 314.795 233.619 313.589 234.685C313.583 234.686 313.578 234.684 313.571 234.686C313.532 234.697 313.495 234.708 313.457 234.719C313.226 233.799 312.986 232.881 312.733 231.968C312.831 231.899 312.882 231.764 312.807 231.669C313.347 230.776 313.748 229.772 314.111 228.802C314.138 228.729 314.032 228.685 314 228.756C313.583 229.681 313.126 230.495 312.545 231.294C312.006 229.414 311.401 227.553 310.671 225.729C310.603 225.56 310.353 225.674 310.414 225.843C311.056 227.627 311.596 229.438 312.088 231.262C310.771 230.57 309.347 229.89 308.276 228.894C308.221 228.842 308.132 228.915 308.185 228.973C308.784 229.622 309.516 230.092 310.249 230.576C310.904 231.009 311.532 231.576 312.259 231.893C312.516 232.875 312.759 233.862 312.992 234.85C311.924 235.153 310.925 235.389 309.769 235.052C308.355 234.639 307.225 233.707 306.508 232.426C306.42 232.269 306.163 232.389 306.254 232.545C306.942 233.727 307.975 234.661 309.248 235.188C310.588 235.743 311.775 235.566 313.087 235.257C313.354 236.4 313.614 237.545 313.869 238.692C312.714 238.571 311.546 238.254 310.431 237.984C308.631 237.548 307.27 236.651 305.581 236.003C305.412 235.938 305.305 236.195 305.473 236.263C307.07 236.901 308.364 237.795 310.054 238.249C311.271 238.576 312.664 239.047 313.96 239.105C313.973 239.165 313.987 239.226 314 239.286C313.994 239.302 313.985 239.316 313.979 239.332C313.936 239.447 313.986 239.533 314.064 239.575C314.308 240.673 314.553 241.772 314.808 242.868C314.824 242.936 314.842 243.004 314.858 243.073C312.041 243.091 307.71 242.86 306.149 240.309C306 240.066 305.651 240.316 305.832 240.55C307.938 243.279 311.919 243.07 315.001 243.658C315.299 244.893 315.617 246.122 315.954 247.346C314.214 247.528 312.49 247.554 310.765 247.139C309.196 246.761 307.064 246.417 305.891 245.246C305.854 245.209 305.802 245.269 305.837 245.306C306.968 246.486 308.87 246.774 310.373 247.238C312.281 247.828 314.134 248.22 316.086 247.902C316.096 247.958 316.117 248.011 316.152 248.056C316.369 248.831 316.59 249.604 316.815 250.376C313.894 251.472 308.95 251.168 306.516 249.705C306.505 249.698 306.496 249.715 306.507 249.723C308.247 250.893 310.177 251.153 312.237 251.198C313.776 251.232 315.468 251.332 316.933 250.778C317.352 252.207 317.778 253.634 318.2 255.062C316.764 255.176 315.366 255.561 313.929 255.639C311.793 255.757 309.816 255.102 308.015 254.005C307.906 253.939 307.784 254.094 307.894 254.165C311.292 256.36 314.525 255.963 318.357 255.594C318.702 256.766 319.041 257.94 319.369 259.117C316.435 259.855 312.187 259.833 309.736 258.128C309.556 258.003 309.349 258.273 309.53 258.4C311.089 259.498 313.013 259.755 314.882 259.815C316.228 259.858 318.153 260.072 319.496 259.565C319.507 259.604 319.518 259.642 319.529 259.681C319.995 261.378 320.413 263.088 320.803 264.804C317.442 265.449 314.46 264.125 311.302 263.057C311.082 262.983 310.948 263.315 311.168 263.393C314.416 264.548 317.444 265.938 320.917 265.307C321.23 266.706 321.524 268.108 321.805 269.514C318.91 269.99 315.526 269.353 312.896 268.036C312.71 267.942 312.597 268.239 312.777 268.334C315.555 269.798 318.834 270.353 321.914 270.059C322.212 271.569 322.498 273.081 322.779 274.594C319.96 275.419 317.165 274.715 314.574 273.387C314.514 273.356 314.458 273.459 314.518 273.493C316.891 274.827 320.147 276.126 322.882 275.149C322.972 275.632 323.061 276.115 323.15 276.598C323.204 276.89 323.257 277.186 323.309 277.485C321.052 277.825 318.878 277.97 316.617 277.395C316.554 277.379 316.535 277.474 316.596 277.493C318.805 278.17 321.109 278.247 323.386 277.933C323.543 278.847 323.698 279.79 323.863 280.747C323.264 280.747 322.67 280.718 322.057 280.807C320.932 280.971 320.001 280.642 318.901 280.526C318.8 280.515 318.763 280.668 318.867 280.683C319.85 280.824 320.676 281.211 321.688 281.134C322.437 281.077 323.181 281.104 323.924 281.09C324.589 284.884 325.458 288.841 327.399 291.876C327.829 292.549 329.122 292.179 328.953 291.328C328.433 288.708 327.236 286.214 326.387 283.691Z" fill="#747DED"/>
<path d="M347.672 248.645C348.137 259.155 353.057 276.012 340.524 282.047C337.149 283.672 333.088 282.074 330.305 279.77C326.664 276.755 324.037 269.089 322.953 264.599C322.094 261.04 322.304 256.776 321.789 253.098C321.233 249.124 320.596 245.162 320.07 241.184C318.176 226.846 322.502 213.334 333.053 203.272C335.161 207.603 338.31 210.924 341.334 214.83C342.712 216.61 344.033 218.522 345.131 220.476C347.076 223.936 346.807 227.997 346.802 231.782C346.795 237.377 347.424 243.049 347.672 248.645Z" fill="url(#paint8_linear_6_9)"/>
<path d="M338.372 282.948C338.254 282.086 338.146 281.222 338.045 280.357C339.623 279.954 341.04 278.641 342.192 277.62C344.19 275.848 345.622 273.668 346.966 271.385C347.038 271.263 346.835 271.147 346.754 271.26C345.336 273.228 343.839 275.165 341.947 276.706C340.893 277.565 339.376 278.916 337.947 279.465C337.833 278.43 337.735 277.393 337.648 276.356C339.241 275.739 340.475 274.279 341.658 273.101C343.669 271.099 345.246 268.768 346.912 266.486C346.931 266.46 346.893 266.431 346.873 266.455C344.238 269.614 341.486 273.858 337.589 275.62C337.489 274.318 337.404 273.015 337.353 271.712C337.35 271.644 337.349 271.576 337.346 271.508C341.768 269.119 344.027 264.607 346.888 260.698C346.934 260.635 346.846 260.55 346.796 260.614C343.933 264.28 341.384 268.283 337.32 270.738C337.254 268.873 337.206 267.009 337.16 265.146C341.036 262.49 343.817 259.123 345.923 254.88C345.958 254.809 345.856 254.747 345.815 254.817C343.536 258.817 340.598 261.525 337.14 264.348C337.094 262.504 337.046 260.661 336.975 258.819C338.594 257.442 340.399 256.397 341.805 254.77C343.192 253.165 344.348 251.377 344.989 249.348C345.023 249.241 344.863 249.189 344.824 249.293C343.301 253.335 339.966 255.316 336.939 258.005C336.867 256.29 336.77 254.574 336.638 252.859C339.981 249.739 343.699 246.691 344.864 242.038C344.876 241.992 344.809 241.967 344.794 242.013C343.414 246.367 339.749 249.018 336.568 252.002C336.542 251.697 336.522 251.392 336.494 251.087C336.347 249.503 336.184 247.92 336.016 246.338C338.022 244.88 339.829 243.082 341.507 241.267C342.697 239.979 343.987 238.674 344.552 236.981C344.587 236.875 344.429 236.814 344.389 236.919C343.06 240.429 338.935 243.307 335.943 245.651C335.772 244.054 335.599 242.457 335.429 240.859C338.596 237.652 342.677 235.29 343.947 230.632C343.985 230.493 343.78 230.427 343.734 230.564C342.292 234.889 338.388 237.097 335.349 240.113C335.245 239.123 335.143 238.133 335.046 237.142C338.707 234.638 342.547 230.072 343.754 225.886C343.82 225.656 343.482 225.542 343.4 225.768C342.038 229.518 338.555 234.1 334.973 236.354C334.821 234.747 334.68 233.14 334.565 231.529C334.582 231.48 334.591 231.43 334.591 231.377C336.268 230.386 337.737 228.655 339.058 227.294C340.65 225.654 342.109 223.846 342.799 221.637C342.875 221.393 342.482 221.285 342.416 221.532C341.431 225.185 337.718 228.405 334.504 230.518C334.466 229.929 334.425 229.341 334.395 228.752C334.349 227.87 334.308 226.988 334.268 226.106C335.459 224.746 337.169 223.806 338.351 222.388C339.379 221.155 340.2 219.776 340.997 218.388C341.076 218.25 340.874 218.119 340.787 218.254C339.673 219.997 338.503 221.694 336.965 223.096C336.105 223.88 335.047 224.47 334.232 225.297C334.167 223.854 334.101 222.412 334.023 220.971C334.04 220.964 334.055 220.954 334.071 220.947C334.089 220.946 334.107 220.945 334.125 220.944C334.23 220.938 334.3 220.883 334.344 220.811C336.18 219.821 337.254 217.753 338.208 215.981C338.231 215.939 338.171 215.902 338.144 215.942C337.084 217.57 335.87 219.382 334.157 220.4C334.149 220.4 334.144 220.397 334.135 220.397C334.086 220.402 334.038 220.406 333.988 220.41C333.921 219.238 333.841 218.067 333.745 216.898C333.88 216.837 333.973 216.684 333.904 216.551C334.767 215.59 335.488 214.462 336.153 213.367C336.203 213.285 336.084 213.206 336.028 213.285C335.307 214.313 334.563 215.197 333.671 216.034C333.451 213.624 333.147 211.222 332.681 208.835C332.638 208.614 332.307 208.695 332.342 208.914C332.709 211.232 332.947 213.559 333.122 215.89C331.681 214.744 330.108 213.587 329.036 212.129C328.98 212.054 328.856 212.121 328.907 212.205C329.485 213.132 330.266 213.874 331.045 214.632C331.742 215.31 332.374 216.144 333.183 216.698C333.269 217.952 333.335 219.207 333.39 220.463C332.021 220.584 330.752 220.64 329.426 219.962C327.802 219.132 326.645 217.738 326.07 216.014C325.999 215.802 325.659 215.889 325.733 216.1C326.296 217.697 327.335 219.07 328.761 220.006C330.261 220.991 331.745 221.051 333.412 220.979C333.472 222.431 333.523 223.883 333.568 225.336C332.192 224.922 330.846 224.266 329.552 223.68C327.465 222.734 326.017 221.327 324.115 220.149C323.925 220.031 323.735 220.319 323.924 220.44C325.717 221.586 327.084 222.971 329.034 223.915C330.437 224.594 332.022 225.49 333.584 225.86C333.586 225.937 333.589 226.013 333.591 226.09C333.58 226.108 333.566 226.123 333.555 226.141C333.475 226.271 333.517 226.387 333.602 226.457C333.645 227.849 333.688 229.241 333.744 230.632C333.748 230.719 333.754 230.806 333.757 230.893C330.328 230.263 325.116 228.979 323.809 225.516C323.684 225.186 323.202 225.409 323.368 225.736C325.297 229.542 330.184 230.209 333.795 231.638C333.871 233.208 333.973 234.776 334.1 236.342C331.942 236.161 329.841 235.793 327.839 234.888C326.018 234.066 323.507 233.153 322.352 231.458C322.316 231.405 322.238 231.465 322.273 231.518C323.374 233.215 325.621 234.005 327.34 234.917C329.523 236.076 331.685 236.981 334.132 237.047C334.131 237.117 334.144 237.186 334.177 237.249C334.261 238.241 334.351 239.232 334.446 240.223C330.641 240.879 324.702 239.365 322.08 237.023C322.068 237.012 322.053 237.031 322.064 237.042C323.909 238.867 326.195 239.63 328.688 240.162C330.551 240.56 332.585 241.073 334.494 240.739C334.672 242.573 334.86 244.406 335.043 246.24C333.271 246.046 331.482 246.19 329.717 245.953C327.093 245.601 324.842 244.348 322.906 242.597C322.789 242.491 322.604 242.652 322.721 242.763C326.344 246.219 330.366 246.484 335.11 246.922C335.259 248.427 335.398 249.933 335.524 251.439C331.787 251.657 326.627 250.646 324.042 248.006C323.852 247.812 323.538 248.093 323.728 248.289C325.369 249.985 327.649 250.743 329.906 251.249C331.532 251.613 333.823 252.318 335.573 252.013C335.577 252.062 335.582 252.112 335.586 252.161C335.76 254.332 335.872 256.507 335.949 258.683C331.714 258.689 328.395 256.389 324.804 254.359C324.554 254.218 324.314 254.59 324.563 254.736C328.244 256.892 331.603 259.283 335.971 259.32C336.028 261.093 336.061 262.866 336.077 264.64C332.447 264.548 328.481 262.991 325.589 260.78C325.384 260.623 325.178 260.958 325.375 261.115C328.413 263.538 332.271 264.972 336.084 265.327C336.097 267.232 336.094 269.136 336.085 271.04C332.467 271.39 329.232 269.887 326.39 267.673C326.324 267.621 326.233 267.734 326.298 267.788C328.874 269.959 332.532 272.293 336.082 271.737C336.079 272.345 336.076 272.953 336.073 273.56C336.071 273.927 336.066 274.299 336.061 274.675C333.238 274.565 330.562 274.239 327.946 273.016C327.873 272.982 327.827 273.094 327.897 273.131C330.426 274.465 333.209 275.092 336.05 275.237C336.029 276.385 335.999 277.567 335.978 278.769C335.25 278.63 334.534 278.457 333.768 278.424C332.362 278.362 331.307 277.748 329.997 277.352C329.877 277.316 329.796 277.493 329.919 277.535C331.082 277.934 331.996 278.596 333.243 278.737C334.167 278.842 335.065 279.046 335.971 279.201C335.901 283.967 336.041 288.978 337.698 293.118C338.066 294.036 339.723 293.885 339.714 292.812C339.697 289.52 338.82 286.211 338.372 282.948Z" fill="#747DED"/>
<path d="M354.59 286.885L354.126 295.428L353.4 308.731L352.21 330.588H322.618L321.428 308.731L320.703 295.428L320.239 286.885H354.59Z" fill="#95A8B5"/>
<path d="M354.126 295.428L354.031 297.141L353.935 298.914L353.4 308.731H321.428L320.893 298.914L320.798 297.141L320.703 295.428H354.126Z" fill="#A5B7C6"/>
<path d="M354.031 297.141L353.935 298.914H320.893L320.798 297.141H354.031Z" fill="#95A8B5"/>
<defs>
<radialGradient id="paint0_radial_6_9" cx="0" cy="0" r="1" gradientUnits="userSpaceOnUse" gradientTransform="translate(247.775 112.604) scale(12.9255 12.9255)">
<stop stop-color="#FFC8AF"/>
<stop offset="1" stop-color="#FFBB9C"/>
</radialGradient>
<radialGradient id="paint1_radial_6_9" cx="0" cy="0" r="1" gradientUnits="userSpaceOnUse" gradientTransform="translate(240.297 89.2077) rotate(-12.1516) scale(20.3776 20.3776)">
<stop stop-color="#FFC8AF"/>
<stop offset="1" stop-color="#FFBB9C"/>
</radialGradient>
<radialGradient id="paint2_radial_6_9" cx="0" cy="0" r="1" gradientUnits="userSpaceOnUse" gradientTransform="translate(220.218 307.773) scale(8.1259 8.12589)">
<stop stop-color="#FFC8AF"/>
<stop offset="1" stop-color="#FFBB9C"/>
</radialGradient>
<radialGradient id="paint3_radial_6_9" cx="0" cy="0" r="1" gradientUnits="userSpaceOnUse" gradientTransform="translate(168.754 309.811) scale(7.4015 7.4015)">
<stop stop-color="#FFC8AF"/>
<stop offset="1" stop-color="#FFBB9C"/>
</radialGradient>
<radialGradient id="paint4_radial_6_9" cx="0" cy="0" r="1" gradientUnits="userSpaceOnUse" gradientTransform="translate(213.816 170.922) scale(41.4442 41.4442)">
<stop stop-color="#FFC8AF"/>
<stop offset="1" stop-color="#FFBB9C"/>
</radialGradient>
<radialGradient id="paint5_radial_6_9" cx="0" cy="0" r="1" gradientUnits="userSpaceOnUse" gradientTransform="translate(213.816 170.922) scale(41.444 41.444)">
<stop stop-color="#FFC8AF"/>
<stop offset="1" stop-color="#FFBB9C"/>
</radialGradient>
<linearGradient id="paint6_linear_6_9" x1="354.124" y1="218.998" x2="354.127" y2="282.298" gradientUnits="userSpaceOnUse">
<stop stop-color="#606BF1"/>
<stop offset="1" stop-color="#58479F"/>
</linearGradient>
<linearGradient id="paint7_linear_6_9" x1="303.915" y1="224.137" x2="330.635" y2="281.522" gradientUnits="userSpaceOnUse">
<stop stop-color="#606BF1"/>
<stop offset="1" stop-color="#58479F"/>
</linearGradient>
<linearGradient id="paint8_linear_6_9" x1="324.843" y1="205.345" x2="344.036" y2="281.295" gradientUnits="userSpaceOnUse">
<stop stop-color="#606BF1"/>
<stop offset="1" stop-color="#58479F"/>
</linearGradient>
</defs>
</svg>
