<svg width="222" height="42" viewBox="0 0 222 42" fill="none" xmlns="http://www.w3.org/2000/svg">
<path d="M18 42V36H12V30H6V24H0V18H6V12H12V6H18V0H30V6H24V12H18V18H12V24H18V30H24V36H30V42H18ZM48 42V36H42V30H54V36H72V0H84V36H78V42H48ZM96 42V36H90V30H102V36H120V24H96V18H90V6H96V0H126V6H132V12H120V6H102V18H126V24H132V36H126V42H96ZM180 0V6H174V0H180ZM168 6H174V12H168V6ZM162 12H168V18H162V12ZM156 18H162V24H156V18ZM150 24H156V30H150V24ZM144 30H150V36H144V30ZM138 36H144V42H138V36ZM192 42V36H198V30H204V24H210V18H204V12H198V6H192V0H204V6H210V12H216V18H222V24H216V30H210V36H204V42H192Z" fill="#DDED04"/>
</svg>
