<svg width="41" height="41" viewBox="0 0 41 41" fill="none" xmlns="http://www.w3.org/2000/svg">
<mask id="mask0_1_21" style="mask-type:luminance" maskUnits="userSpaceOnUse" x="0" y="0" width="41" height="41">
<path d="M0.936796 0.386834H40.9368V40.3868H0.936796V0.386834Z" fill="white"/>
</mask>
<g mask="url(#mask0_1_21)">
<path d="M20.9368 0.393917C9.89181 0.393917 0.936776 9.48488 0.936776 20.6975C0.936776 30.2114 7.39016 38.1722 16.0901 40.3751C15.9968 40.101 15.9368 39.7829 15.9368 39.3887V35.9184C15.1251 35.9184 13.7652 35.9184 13.4235 35.9184C12.0551 35.9184 10.8385 35.3212 10.2485 34.2112C9.59344 32.9777 9.48009 31.0912 7.85674 29.9373C7.3751 29.5533 7.74174 29.115 8.29682 29.1743C9.32178 29.4687 10.1718 30.1826 10.9717 31.2418C11.7685 32.3027 12.1435 32.5429 13.6318 32.5429C14.3534 32.5429 15.4335 32.5006 16.4501 32.3382C16.9968 30.9289 17.9418 29.6311 19.0967 29.0186C12.4368 28.3232 9.25846 24.9595 9.25846 20.3929C9.25846 18.4268 10.0834 16.5252 11.4851 14.9228C11.0252 13.3324 10.4468 10.0889 11.6618 8.85374C14.6584 8.85374 16.4701 10.8266 16.9051 11.3595C18.3984 10.8401 20.0385 10.5457 21.7618 10.5457C23.4884 10.5457 25.1351 10.8401 26.6318 11.3629C27.0618 10.8333 28.8751 8.85374 31.8784 8.85374C33.0985 10.0906 32.5134 13.3476 32.0485 14.9347C33.4418 16.5335 34.2618 18.4303 34.2618 20.3929C34.2618 24.9562 31.0885 28.3181 24.4384 29.0169C26.2685 29.9863 27.6034 32.7104 27.6034 34.7628V39.3887C27.6034 39.5646 27.5651 39.6915 27.5451 39.842C35.3385 37.0689 40.9368 29.5566 40.9368 20.6975C40.9368 9.48488 31.9817 0.393917 20.9368 0.393917Z" fill="white"/>
</g>
</svg>
