<svg width="40" height="40" viewBox="0 0 40 40" fill="none" xmlns="http://www.w3.org/2000/svg">
<mask id="mask0_1_3" style="mask-type:luminance" maskUnits="userSpaceOnUse" x="33" y="18" width="7" height="8">
<path d="M33.12 18.3999H39.3079V25.3866H33.12V18.3999Z" fill="white"/>
</mask>
<g mask="url(#mask0_1_3)">
<path d="M36.2175 18.4005C36.1235 18.4005 36.032 18.4199 35.9511 18.4657L33.3905 19.9451C33.2249 20.0406 33.1242 20.221 33.1242 20.4129V23.3665C33.1242 23.5582 33.2249 23.7384 33.3905 23.8342L34.0593 24.2197C34.3842 24.38 34.504 24.3774 34.6519 24.3774C35.1328 24.3774 35.4074 24.0854 35.4074 23.5778V20.6637C35.4074 20.6226 35.3718 20.5931 35.3314 20.5931H35.0106C34.9695 20.5931 34.9345 20.6233 34.9345 20.6637V23.5792C34.9345 23.8041 34.7003 24.0304 34.3202 23.8402L33.6251 23.4323C33.6005 23.419 33.5816 23.3945 33.5816 23.3671V20.4135C33.5816 20.3855 33.6003 20.357 33.6251 20.3428L36.1802 18.8687C36.2042 18.855 36.2327 18.855 36.2564 18.8687L38.8115 20.3428C38.8359 20.3574 38.855 20.3847 38.855 20.4135V23.3671C38.855 23.3953 38.841 23.4242 38.817 23.4378L36.2565 24.9119C36.2338 24.925 36.2036 24.925 36.1803 24.9119L35.5225 24.5203C35.5028 24.5089 35.4762 24.5097 35.4573 24.5203C35.2758 24.6232 35.2416 24.6352 35.0714 24.6944C35.0294 24.709 34.9655 24.7317 35.0931 24.8032L35.9521 25.3097C36.0339 25.357 36.1249 25.3803 36.2185 25.3803C36.3134 25.3803 36.403 25.3577 36.4849 25.3097L39.0454 23.8355C39.2112 23.7391 39.3119 23.5596 39.3119 23.3678V20.4143C39.3119 20.2224 39.2112 20.0424 39.0454 19.9465L36.4849 18.4671C36.4047 18.4212 36.3126 18.4019 36.2185 18.4019L36.2175 18.4005ZM36.9025 20.5109C36.1734 20.5109 35.7392 20.8215 35.7392 21.3377C35.7392 21.8971 36.1701 22.0517 36.8699 22.1208C37.7071 22.2029 37.7724 22.3259 37.7724 22.4907C37.7724 22.7768 37.5446 22.8986 37.0059 22.8986C36.3292 22.8986 36.1804 22.7297 36.1306 22.3922C36.1247 22.356 36.0969 22.327 36.06 22.327H35.7275C35.7175 22.3272 35.7079 22.3293 35.6987 22.3332C35.6895 22.3371 35.6813 22.3426 35.6742 22.3497C35.6671 22.3569 35.6616 22.365 35.6577 22.3742C35.6538 22.3834 35.6517 22.393 35.6515 22.4031C35.6515 22.8342 35.8859 23.3441 37.0051 23.3441C37.8153 23.3441 38.2827 23.0266 38.2827 22.4683C38.2827 21.9165 37.9052 21.7673 37.1193 21.6632C36.326 21.5574 36.2495 21.5068 36.2495 21.3205C36.2495 21.1669 36.3137 20.9615 36.9019 20.9615C37.4272 20.9615 37.6214 21.0749 37.7011 21.4293C37.708 21.4625 37.7373 21.4897 37.7717 21.4897H38.1042C38.1245 21.4897 38.1443 21.4772 38.1586 21.4625C38.1724 21.4469 38.1823 21.4293 38.1803 21.4081C38.129 20.7977 37.7221 20.5106 36.9027 20.5106L36.9025 20.5109Z" fill="#83CD29"/>
</g>
<mask id="mask1_1_3" style="mask-type:luminance" maskUnits="userSpaceOnUse" x="0" y="14" width="32" height="12">
<path d="M0.687492 14.5068H31.1196V25.4401H0.687492V14.5068Z" fill="white"/>
</mask>
<g mask="url(#mask1_1_3)">
<path d="M21.1637 14.5287C21.1346 14.5288 21.1074 14.536 21.0821 14.5505C21.0698 14.5578 21.0586 14.5664 21.0485 14.5765C21.0384 14.5867 21.0298 14.598 21.0226 14.6104C21.0155 14.6228 21.01 14.6359 21.0063 14.6497C21.0026 14.6635 21.0007 14.6777 21.0007 14.6919V18.8529C21.0007 18.8937 20.9816 18.9303 20.9462 18.9508C20.9286 18.9611 20.9095 18.9662 20.8891 18.9662C20.8687 18.9662 20.8497 18.9611 20.832 18.9508L20.1524 18.5592C20.1278 18.5449 20.1015 18.534 20.0738 18.5265C20.0462 18.5191 20.0181 18.5154 19.9894 18.5154C19.9608 18.5154 19.9326 18.5191 19.9049 18.5265C19.8773 18.534 19.8511 18.5449 19.8263 18.5592L17.1138 20.1257C17.0123 20.1841 16.9506 20.2968 16.9506 20.4139V23.5468C16.9505 23.5755 16.9542 23.6037 16.9616 23.6314C16.969 23.659 16.9798 23.6854 16.9941 23.7102C17.0085 23.735 17.0258 23.7576 17.046 23.7778C17.0663 23.7981 17.0888 23.8154 17.1137 23.8296L19.8265 25.3961C19.8512 25.4106 19.8774 25.4214 19.9051 25.4289C19.9328 25.4363 19.9609 25.4401 19.9895 25.4401C20.0182 25.4401 20.0463 25.4363 20.074 25.4289C20.1016 25.4214 20.1279 25.4106 20.1526 25.3961L22.8655 23.8296C22.8903 23.8154 22.9128 23.7981 22.9331 23.7778C22.9534 23.7576 22.9707 23.735 22.9849 23.7102C22.9993 23.6854 23.0101 23.659 23.0175 23.6314C23.0249 23.6037 23.0286 23.5755 23.0286 23.5468V15.7362C23.0286 15.6174 22.9637 15.5059 22.86 15.448L21.2454 14.5446C21.2199 14.5306 21.1919 14.5281 21.1638 14.5283L21.1637 14.5287ZM3.71265 18.4394C3.66088 18.4416 3.61234 18.4506 3.56588 18.4776L0.853169 20.044C0.828273 20.0583 0.805773 20.0756 0.78546 20.0958C0.765148 20.1161 0.747856 20.1386 0.733585 20.1634C0.71921 20.1883 0.708377 20.2145 0.701085 20.2422C0.693689 20.27 0.690044 20.2982 0.690148 20.3268L0.695668 24.5314C0.695668 24.59 0.725877 24.6442 0.777231 24.6728C0.827648 24.703 0.890148 24.703 0.940252 24.6728L2.54942 23.7481C2.6515 23.6876 2.71796 23.582 2.71796 23.4654V21.5016C2.71796 21.3844 2.77952 21.277 2.88119 21.2188L3.56619 20.8218C3.61661 20.7925 3.67088 20.778 3.72921 20.7783C3.78754 20.7779 3.84192 20.7925 3.89234 20.8218L4.57702 21.2186C4.67859 21.2768 4.74015 21.3843 4.74015 21.5013V23.4649C4.74015 23.5817 4.80817 23.6879 4.90859 23.7477L6.51775 24.6724C6.56838 24.7026 6.63077 24.7026 6.68088 24.6724C6.73067 24.6436 6.76244 24.5893 6.76244 24.531L6.76786 20.3265C6.76806 20.2978 6.76442 20.2696 6.75713 20.2418C6.74973 20.2141 6.739 20.1879 6.72463 20.163C6.71025 20.1382 6.69296 20.1156 6.67265 20.0954C6.65234 20.0752 6.62973 20.0579 6.60484 20.0437L3.89213 18.4778C3.84629 18.4509 3.79744 18.4418 3.74536 18.4396H3.71286L3.71265 18.4394ZM28.0894 18.4776C28.0311 18.4775 27.9767 18.4919 27.9263 18.5211L25.2135 20.0877C25.1122 20.1462 25.0503 20.2533 25.0503 20.3704V23.5033C25.0503 23.6211 25.1166 23.7278 25.2188 23.786L27.9098 25.3206C28.0091 25.3774 28.1305 25.3816 28.2306 25.3259L29.8615 24.4176C29.9132 24.3888 29.9482 24.3352 29.9484 24.2762C29.9485 24.2172 29.9179 24.1641 29.8667 24.1349L27.1375 22.5683C27.0865 22.5391 27.0507 22.4801 27.0507 22.4214V21.4417C27.0507 21.3832 27.0869 21.3295 27.1375 21.3004L27.9857 20.8108C28.0361 20.7816 28.0981 20.7816 28.1489 20.8108L28.9989 21.3004C29.0113 21.3075 29.0225 21.3161 29.0328 21.3262C29.0429 21.3363 29.0515 21.3477 29.0587 21.3601C29.0659 21.3725 29.0713 21.3856 29.0749 21.3994C29.0786 21.4133 29.0805 21.4274 29.0805 21.4417V22.214C29.0804 22.2284 29.0822 22.2425 29.0859 22.2563C29.0896 22.2702 29.095 22.2833 29.1021 22.2957C29.1093 22.3082 29.118 22.3194 29.1281 22.3295C29.1383 22.3396 29.1495 22.3483 29.1619 22.3555C29.2128 22.3847 29.2744 22.385 29.3252 22.3555L30.9505 21.409C31.0513 21.3503 31.1136 21.2429 31.1136 21.1262V20.3703C31.1136 20.3416 31.1099 20.3135 31.1025 20.2858C31.0952 20.2581 31.0842 20.2318 31.0699 20.207C31.0556 20.1821 31.0383 20.1596 31.0181 20.1393C30.9979 20.1191 30.9753 20.1018 30.9505 20.0875L28.254 18.521C28.2036 18.4917 28.1492 18.4772 28.0909 18.4775L28.0894 18.4776ZM19.9782 20.8165C19.9936 20.8164 20.0081 20.8201 20.0217 20.8274L20.9513 21.3658C20.9765 21.3804 20.9948 21.4074 20.9948 21.4365V22.5134C20.9948 22.5427 20.9767 22.5696 20.9513 22.5841L20.0217 23.1226C19.9964 23.1369 19.9655 23.1369 19.94 23.1226L19.0105 22.5841C18.9851 22.5695 18.9669 22.5426 18.9669 22.5134V21.4368C18.9669 21.4076 18.9853 21.3809 19.0105 21.3661L19.94 20.8277C19.9528 20.8204 19.964 20.8169 19.9782 20.8169V20.8165Z" fill="white"/>
</g>
<path d="M11.8621 18.4614C11.8038 18.4613 11.7494 18.4758 11.6989 18.505L8.98608 20.066C8.88473 20.1246 8.82306 20.2373 8.82306 20.3543V23.4872C8.82296 23.5158 8.8266 23.544 8.834 23.5718C8.84139 23.5995 8.85223 23.6257 8.8665 23.6505C8.88087 23.6754 8.89817 23.6979 8.91837 23.7181C8.93869 23.7384 8.96129 23.7556 8.98608 23.7699L11.6989 25.3364C11.7237 25.3508 11.7498 25.3618 11.7775 25.3692C11.8051 25.3767 11.8334 25.3804 11.862 25.3804C11.8906 25.3804 11.9188 25.3767 11.9464 25.3692C11.9741 25.3618 12.0002 25.3508 12.025 25.3364L14.7379 23.7699C14.7626 23.7556 14.7852 23.7383 14.8055 23.7181C14.8258 23.6978 14.8431 23.6753 14.8573 23.6504C14.8717 23.6256 14.8825 23.5994 14.8899 23.5717C14.8973 23.5439 14.901 23.5158 14.901 23.4872V20.3544C14.901 20.2373 14.8393 20.1246 14.7377 20.0661L12.0249 18.5051C11.9745 18.4758 11.9201 18.4613 11.8618 18.4615L11.8621 18.4614ZM28.0845 21.2572C28.0737 21.2572 28.0617 21.2572 28.0519 21.2625L27.5299 21.5672C27.5201 21.5726 27.5122 21.5802 27.5064 21.59C27.5006 21.5997 27.4975 21.6102 27.4973 21.6214V22.2198C27.4973 22.2424 27.5105 22.2629 27.5299 22.2743L28.0519 22.5734C28.061 22.579 28.071 22.5819 28.0817 22.5819C28.0924 22.5819 28.1024 22.579 28.1116 22.5734L28.6335 22.2743C28.6527 22.2631 28.6661 22.2424 28.6661 22.2198V21.6214C28.6661 21.5989 28.6529 21.5784 28.6335 21.5671L28.1116 21.2624C28.1019 21.2567 28.0952 21.2571 28.0844 21.2571L28.0845 21.2572Z" fill="#83CD29"/>
</svg>
