<svg xmlns="http://www.w3.org/2000/svg" viewBox="0 0 750 750" id="js">
  <path d="M359.18,413.4a20,20,0,0,0-20,20v4.66a65.76,65.76,0,0,0,65.68,65.68h13.05a65.76,65.76,0,0,0,65.68-65.68V422.79a65.76,65.76,0,0,0-65.68-65.68H404.86a25.71,25.71,0,0,1-25.68-25.67v-15.5a25.71,25.71,0,0,1,25.68-25.68h13.05a25.71,25.71,0,0,1,25.68,25.68,20,20,0,0,0,40,0,65.76,65.76,0,0,0-65.68-65.68H404.86a65.76,65.76,0,0,0-65.68,65.68v15.5a65.75,65.75,0,0,0,65.68,65.67h13.05a25.71,25.71,0,0,1,25.68,25.68v15.27a25.71,25.71,0,0,1-25.68,25.68H404.86a25.71,25.71,0,0,1-25.68-25.68V433.4A20,20,0,0,0,359.18,413.4Z"></path>
  <path d="M150.58 480.31c1.49 16.41 11.15 32.05 25.83 41.83a19.36 19.36 0 002 1.18l.48.32a41.37 41.37 0 004.65 2.75l.26.13A64.94 64.94 0 00212 532.87a68.11 68.11 0 0031.27-7.64c18.82-9.77 31.57-27.06 35-47.44a20.19 20.19 0 00.27-3.29c0-46.77 0-90.94.25-136.95a20 20 0 00-19.88-20.11h-.12a20 20 0 00-20 19.89c-.25 45.49-.25 89.14-.25 135.27a25.86 25.86 0 01-13.66 17.12 26.33 26.33 0 01-23.32.92l-.43-.28c-.75-.5-1.79-1.2-3.15-2-4.05-2.94-7-7.39-7.49-11.38-2.35-52.91-2.19-106.48-2-158.29q.06-20.07.08-40.23c0-3 .76-7.23 6.51-13.21 4.48-3.59 10.16-6.85 16.16-10.28 7.76-4.15 15.23-8.52 22.44-12.76s14.16-8.29 21.3-12.1c.48-.26 1-.53 1.41-.83 10.25-6.59 20-12.1 30.36-17.94 3.21-1.81 6.45-3.63 9.74-5.52a15.84 15.84 0 001.7-1.09A208.75 208.75 0 01316 193.71a24.86 24.86 0 009-4.53c1.22-.88 2.6-1.74 4.17-2.72s3.35-2.09 5.21-3.38a29.9 29.9 0 004.13-1.69c.53-.26 1-.55 1.54-.86 2.72-1.67 5.29-3.34 7.77-4.95 8.81-5.72 15.76-10.24 23.39-11.26.52-.06 1-.15 1.55-.26 5.94-1.28 12.93 1.29 20.79 7.63a21.1 21.1 0 009.85 4.81c45.82 27.06 89.94 52.07 141.73 81.08l2 1.32c4.17 2.75 7.22 4.76 10 7.43 3.81 4.36 4 10.6 3.63 23.5-.09 2.78-.18 5.65-.18 8.59a20 20 0 0020 20h0a20 20 0 0020-20c0-2.33.07-4.78.16-7.37.47-14.89 1.11-35.29-14.45-52.16l-.56-.57c-5.71-5.71-11.23-9.35-16.58-12.87l-2.47-1.63q-.65-.44-1.32-.81c-52.59-29.45-97.18-54.72-143.57-82.16a21.08 21.08 0 00-6.66-3.07c-20.15-14.76-38-15.41-49.94-13C348.91 127.13 336.73 135 326 142c-1.78 1.15-3.48 2.26-5.19 3.33a24.76 24.76 0 00-8.7 4.45c-1.22.88-2.6 1.74-4.17 2.72s-3.35 2.09-5.21 3.38a29.9 29.9 0 00-4.13 1.69c-.34.17-.66.34-1 .53-7.05 4-14.33 8.18-21.85 13.48-2.94 1.67-5.83 3.31-8.7 4.92-10.17 5.74-20.68 11.67-31.66 18.7-7.6 4.07-14.91 8.36-22 12.51-7.28 4.26-14.16 8.29-21.3 12.1l-.51.29c-7.64 4.36-15.53 8.87-22.88 15a17.14 17.14 0 00-1.34 1.22c-12.52 12.51-18.86 26.69-18.86 42.14q0 20.1-.08 40.11c-.16 52.47-.32 106.73 2.1 160.78C150.53 479.7 150.55 480 150.58 480.31zM581.2 391.58h-.31a20 20 0 00-19.69 20.3c.3 19.76.3 40.53.3 60.61a15.33 15.33 0 01-4 9.67 52.42 52.42 0 00-5.55 4.3 20.27 20.27 0 00-4.88 2.61c-19.27 11.94-37.44 22.42-56.65 33.51-8.76 5-17.82 10.28-27 15.66a18.73 18.73 0 00-1.89 1.25c-1.32 1-2.84 1.94-4.6 3-1.92 1.2-4.06 2.53-6.33 4.18-3.39 2-6.52 3.88-9.55 5.75s-5.82 3.58-8.8 5.29A272.12 272.12 0 00407.05 572c-7.05 4.32-13.73 8.41-20.75 11.83a56.37 56.37 0 00-5.81 2.32l-1.16.52-.66.08c-2.43.35-6.58-.71-10.83-1.91-4.34-2.24-8.6-4.74-13.08-7.38s-8.86-5.2-13.63-7.71a20 20 0 10-18.65 35.38c4 2.09 7.88 4.39 12 6.83 5.39 3.16 11 6.43 17.06 9.48a20 20 0 003.45 1.34c6.43 1.84 14.11 4 22.66 4a46.42 46.42 0 005.47-.31 37.92 37.92 0 0013.77-3.87c.57-.26 1.34-.61 1.7-.74A20.75 20.75 0 00402 620.6 263.79 263.79 0 00428 606.05 229.51 229.51 0 01450 593.6c.47-.23.94-.47 1.4-.74 3.79-2.16 7.23-4.28 10.56-6.33s6.23-3.83 9.44-5.67a19.05 19.05 0 002.08-1.36c1.32-1 2.84-1.94 4.6-3 1.94-1.21 4.1-2.56 6.41-4.23 8.75-5.12 17.44-10.14 25.86-15 18.76-10.82 36.53-21.08 55.49-32.76a21.13 21.13 0 0010.78-5.83 19.93 19.93 0 002.15-2.54c.58-.47 1.85-1.32 2.8-2a19.8 19.8 0 003-2.5c10.87-10.87 16.86-24.77 16.86-39.14 0-20.23 0-41.15-.31-61.22A20 20 0 00581.2 391.58z"></path>
</svg>
